<svg width="50" height="51" viewBox="0 0 50 51" fill="none" xmlns="http://www.w3.org/2000/svg">
<circle cx="24.5" cy="3.5" r="3" stroke="black"/>
<path d="M38.9671 39.564C34.5091 44.022 29.5227 47.2107 24.8439 48.8989C30.8252 51.0571 36.304 50.763 39.5335 47.5335C42.119 44.9479 42.8231 40.9208 41.8936 36.3482C40.99 37.442 40.0135 38.5176 38.9671 39.564Z" fill="#FF3F8F"/>
<path d="M10.7207 39.564C9.67425 38.5176 8.69776 37.442 7.7942 36.3482C6.86471 40.9208 7.56879 44.9479 10.1543 47.5335C13.3838 50.763 18.8625 51.0571 24.8439 48.8989C20.1651 47.2107 15.1787 44.022 10.7207 39.564Z" fill="#0094E8"/>
<path d="M18.1239 18.7207C20.2724 16.5722 22.5436 14.7186 24.8439 13.1856C16.2692 7.4713 7.28948 6.21302 2.75125 10.7512C-2.41149 15.914 -0.0726318 26.8247 7.79425 36.3482C8.93391 30.7417 12.5294 24.3152 18.1239 18.7207Z" fill="#FF3F8F"/>
<path d="M31.564 18.7208C37.1584 24.3152 40.7539 30.7417 41.8936 36.3482C49.7605 26.8247 52.0993 15.914 46.9366 10.7512C42.3983 6.21301 33.4186 7.4713 24.8439 13.1856C27.1442 14.7186 29.4155 16.5723 31.564 18.7208Z" fill="#0094E8"/>
<path d="M24.8768 13.1216C22.5764 14.6546 20.3053 16.5082 18.1568 18.6567C12.5623 24.2512 8.96682 30.6777 7.82715 36.2842C8.73072 37.378 9.70721 38.4536 10.7536 39.5C15.2117 43.958 20.198 47.1467 24.8768 48.8349C29.5556 47.1467 34.542 43.958 39 39.5C40.0464 38.4536 41.0229 37.378 41.9265 36.2842C40.7868 30.6777 37.1913 24.2512 31.5969 18.6567C29.4484 16.5082 27.1771 14.6546 24.8768 13.1216Z" fill="#333333"/>
</svg>
