<svg width="47" height="77" viewBox="0 0 47 77" fill="none" xmlns="http://www.w3.org/2000/svg">
<path d="M25.7571 7.13127C25.3858 7.08589 25.2614 7.00185 25.1154 7.0153C15.6776 10.2251 8.40006 16.3717 4.00725 26.057C2.89237 28.4998 2.38666 31.2048 2.43253 34.0023C2.48267 39.9989 5.98695 45.0406 11.2734 46.782C14.0238 47.7065 16.8033 48.0712 19.605 47.0489C20.0994 45.6821 20.5487 44.3036 21.1116 43.0578C22.0388 41.0303 23.4652 39.5457 25.551 38.9556C27.087 38.4797 28.4389 38.8327 28.9865 39.801C29.7053 41.0719 29.402 42.4371 28.567 43.4054C27.4093 44.7538 26.0929 45.9576 24.7532 47.0521C23.8823 47.7531 22.8186 48.2491 21.845 48.7686C21.3869 54.4779 25.6884 58.077 31.9654 57.2916C32.319 56.5586 32.6834 55.7769 33.082 55.0557C34.6224 52.4145 36.7771 50.6559 39.7083 50.338C40.8314 50.2186 41.9904 50.3665 42.6641 51.6257C43.1667 52.5822 42.8634 53.9473 41.8391 55.1242C40.1908 56.9634 38.0976 58.0159 35.9126 58.8381C35.1392 59.1004 34.3657 59.3627 33.6032 59.5763C32.6086 68.3435 38.3399 76.2363 46.0376 74.6355C45.8517 75.2575 45.7776 75.8056 45.5324 76.051C45.2312 76.3335 44.6922 76.3991 44.265 76.3907C40.2615 76.1706 36.81 74.7536 34.5527 70.966C32.843 68.1468 31.9626 65.0283 31.6646 61.6492C31.6269 61.1751 31.5892 60.701 31.5065 60.2152C31.5173 60.1664 31.4381 60.0942 31.2903 59.9008C30.8739 59.8437 30.3783 59.7143 29.8609 59.6823C23.5952 59.1295 20.8309 56.5508 19.3913 49.727C18.8072 49.7808 18.133 49.8111 17.4931 49.9019C13.7417 50.2636 10.2503 49.4551 7.01724 47.2697C1.74947 43.7278 -0.764723 37.4488 0.324689 30.6148C0.911862 26.8994 2.27764 23.5421 4.2526 20.447C9.05742 12.9841 15.3648 7.77059 23.6072 5.43509C24.0218 5.28545 24.4707 5.19633 24.8854 5.04669C24.9413 5.0097 25.008 4.92395 25.2082 4.66672C23.7628 3.87665 22.2883 3.6464 20.8247 3.36739C19.417 3.0514 17.9425 2.82115 16.3888 2.51861C16.8056 1.28631 17.5448 0.963492 18.3758 0.870988C19.3421 0.813784 20.3299 0.659072 21.242 0.84564C23.697 1.3835 26.1861 1.98188 28.632 2.77527C30.5371 3.42747 30.8287 4.69001 29.5934 6.17285C26.9442 9.29823 24.25 12.4119 21.5558 15.5255C21.1104 16.0282 20.5965 16.4098 19.9492 16.9629C19.3313 15.6668 19.8652 14.9809 20.3431 14.3319C22.1898 12.0286 23.9013 9.69007 25.7571 7.13127ZM40.9873 52.7353C37.7806 52.3622 35.3663 54.0015 34.5595 56.9889C36.9573 56.0675 39.2325 55.2689 40.9873 52.7353ZM27.4358 41.2015C24.6255 41.1899 22.9305 42.8106 22.54 45.8552C24.599 44.7421 26.411 43.6678 27.4358 41.2015Z" fill="#F6BE4F"/>
</svg>
